<svg width="354" height="172" viewBox="0 0 354 172" fill="none" xmlns="http://www.w3.org/2000/svg">
<g filter="url(#filter0_b_1266_9273)">
<rect width="354" height="172" rx="24" fill="#141A1F" fill-opacity="0.95"/>
<rect x="16" y="16" width="322" height="32" rx="8" fill="#33404C" fill-opacity="0.3"/>
<path d="M32.093 27.6C33.713 27.6 34.961 28.848 34.961 30.42C34.961 31.992 33.713 33.24 32.093 33.24H30.617V36H28.961V27.6H32.093ZM32.093 31.692C32.801 31.692 33.317 31.14 33.317 30.42C33.317 29.688 32.801 29.148 32.093 29.148H30.617V31.692H32.093ZM41.1271 36L39.4351 33.084H38.1751V36H36.5191V27.6H39.8791C41.4271 27.6 42.6751 28.848 42.6751 30.384C42.6751 31.44 42.0151 32.388 41.0551 32.832L42.9151 36H41.1271ZM38.1751 29.148V31.632H39.8791C40.5031 31.632 41.0191 31.08 41.0191 30.384C41.0191 29.688 40.5031 29.148 39.8791 29.148H38.1751ZM46.0262 34.416H49.5662V36H44.3702V27.6H49.5062V29.184H46.0262V30.972H49.2062V32.532H46.0262V34.416ZM59.4335 27.6V36H57.7895V30.552L55.4255 34.452H55.2335L52.8695 30.564V36H51.2135V27.6H52.9175L55.3295 31.572L57.7295 27.6H59.4335ZM61.4787 27.6H63.1347V36H61.4787V27.6ZM66.8256 34.416H70.3656V36H65.1696V27.6H70.3056V29.184H66.8256V30.972H70.0056V32.532H66.8256V34.416ZM76.6209 36L74.9289 33.084H73.6689V36H72.0129V27.6H75.3729C76.9209 27.6 78.1689 28.848 78.1689 30.384C78.1689 31.44 77.5089 32.388 76.5489 32.832L78.4089 36H76.6209ZM73.6689 29.148V31.632H75.3729C75.9969 31.632 76.5129 31.08 76.5129 30.384C76.5129 29.688 75.9969 29.148 75.3729 29.148H73.6689ZM87.328 36.168C84.784 36.168 82.96 34.248 82.96 31.8C82.96 29.34 84.784 27.432 87.328 27.432C88.864 27.432 90.22 28.212 90.94 29.412L89.512 30.24C89.104 29.496 88.288 29.04 87.328 29.04C85.684 29.04 84.604 30.18 84.604 31.8C84.604 33.408 85.684 34.548 87.328 34.548C88.288 34.548 89.116 34.092 89.512 33.36L90.94 34.188C90.232 35.388 88.876 36.168 87.328 36.168ZM95.5693 36.168C93.7333 36.168 92.3653 35.064 92.3653 33.252V27.6H94.0093V33.12C94.0093 33.936 94.4413 34.548 95.5693 34.548C96.6973 34.548 97.1293 33.936 97.1293 33.12V27.6H98.7853V33.252C98.7853 35.064 97.4173 36.168 95.5693 36.168ZM103.625 36.168C101.909 36.168 100.781 35.34 100.325 34.092L101.741 33.264C102.041 34.044 102.629 34.548 103.673 34.548C104.669 34.548 105.017 34.128 105.017 33.66C105.017 33.036 104.453 32.796 103.205 32.436C101.921 32.064 100.673 31.524 100.673 29.928C100.673 28.344 101.993 27.432 103.433 27.432C104.813 27.432 105.869 28.14 106.433 29.316L105.041 30.12C104.741 29.484 104.285 29.04 103.433 29.04C102.737 29.04 102.329 29.4 102.329 29.88C102.329 30.396 102.653 30.672 103.925 31.056C105.257 31.476 106.673 31.92 106.673 33.636C106.673 35.208 105.413 36.168 103.625 36.168ZM113.485 27.6V29.184H111.217V36H109.561V29.184H107.305V27.6H113.485ZM118.381 36.168C115.957 36.168 114.025 34.248 114.025 31.8C114.025 29.34 115.957 27.432 118.381 27.432C120.805 27.432 122.749 29.34 122.749 31.8C122.749 34.248 120.805 36.168 118.381 36.168ZM118.381 34.548C119.905 34.548 121.093 33.408 121.093 31.8C121.093 30.18 119.905 29.04 118.381 29.04C116.857 29.04 115.669 30.18 115.669 31.8C115.669 33.408 116.857 34.548 118.381 34.548ZM132.612 27.6V36H130.968V30.552L128.604 34.452H128.412L126.048 30.564V36H124.392V27.6H126.096L128.508 31.572L130.908 27.6H132.612ZM141.006 36.168C139.29 36.168 138.162 35.34 137.706 34.092L139.122 33.264C139.422 34.044 140.01 34.548 141.054 34.548C142.05 34.548 142.398 34.128 142.398 33.66C142.398 33.036 141.834 32.796 140.586 32.436C139.302 32.064 138.054 31.524 138.054 29.928C138.054 28.344 139.374 27.432 140.814 27.432C142.194 27.432 143.25 28.14 143.814 29.316L142.422 30.12C142.122 29.484 141.666 29.04 140.814 29.04C140.118 29.04 139.71 29.4 139.71 29.88C139.71 30.396 140.034 30.672 141.306 31.056C142.638 31.476 144.054 31.92 144.054 33.636C144.054 35.208 142.794 36.168 141.006 36.168ZM149.527 36.168C147.103 36.168 145.171 34.248 145.171 31.8C145.171 29.34 147.103 27.432 149.527 27.432C151.951 27.432 153.895 29.34 153.895 31.8C153.895 34.248 151.951 36.168 149.527 36.168ZM149.527 34.548C151.051 34.548 152.239 33.408 152.239 31.8C152.239 30.18 151.051 29.04 149.527 29.04C148.003 29.04 146.815 30.18 146.815 31.8C146.815 33.408 148.003 34.548 149.527 34.548ZM160.555 29.184H157.195V31.176H160.459V32.76H157.195V36H155.539V27.6H160.555V29.184ZM167.798 27.6V29.184H165.53V36H163.874V29.184H161.618V27.6H167.798ZM170.954 36L168.602 27.6H170.342L171.95 33.828L173.702 27.6H175.118L176.882 33.828L178.49 27.6H180.23L177.878 36H175.994L174.41 30.456L172.838 36H170.954ZM186.59 36L186.086 34.488H182.738L182.234 36H180.446L183.386 27.6H185.438L188.39 36H186.59ZM183.266 32.94H185.57L184.418 29.508L183.266 32.94ZM194.294 36L192.602 33.084H191.342V36H189.686V27.6H193.046C194.594 27.6 195.842 28.848 195.842 30.384C195.842 31.44 195.182 32.388 194.222 32.832L196.082 36H194.294ZM191.342 29.148V31.632H193.046C193.67 31.632 194.186 31.08 194.186 30.384C194.186 29.688 193.67 29.148 193.046 29.148H191.342ZM199.193 34.416H202.733V36H197.537V27.6H202.673V29.184H199.193V30.972H202.373V32.532H199.193V34.416ZM211.196 27.6C213.512 27.6 215.24 29.436 215.24 31.8C215.24 34.164 213.512 36 211.196 36H207.86V27.6H211.196ZM211.196 34.416C212.648 34.416 213.656 33.348 213.656 31.8C213.656 30.252 212.648 29.184 211.196 29.184H209.516V34.416H211.196ZM218.551 34.416H222.091V36H216.895V27.6H222.031V29.184H218.551V30.972H221.731V32.532H218.551V34.416ZM225.814 36L222.994 27.6H224.794L226.846 34.056L228.886 27.6H230.698L227.866 36H225.814ZM231.854 36.156C231.29 36.156 230.834 35.7 230.834 35.136C230.834 34.572 231.29 34.116 231.854 34.116C232.418 34.116 232.874 34.572 232.874 35.136C232.874 35.7 232.418 36.156 231.854 36.156ZM242.181 36.168C239.637 36.168 237.813 34.248 237.813 31.8C237.813 29.34 239.637 27.432 242.181 27.432C243.717 27.432 245.073 28.212 245.793 29.412L244.365 30.24C243.957 29.496 243.141 29.04 242.181 29.04C240.537 29.04 239.457 30.18 239.457 31.8C239.457 33.408 240.537 34.548 242.181 34.548C243.141 34.548 243.969 34.092 244.365 33.36L245.793 34.188C245.085 35.388 243.729 36.168 242.181 36.168ZM251.181 36.168C248.757 36.168 246.825 34.248 246.825 31.8C246.825 29.34 248.757 27.432 251.181 27.432C253.605 27.432 255.549 29.34 255.549 31.8C255.549 34.248 253.605 36.168 251.181 36.168ZM251.181 34.548C252.705 34.548 253.893 33.408 253.893 31.8C253.893 30.18 252.705 29.04 251.181 29.04C249.657 29.04 248.469 30.18 248.469 31.8C248.469 33.408 249.657 34.548 251.181 34.548ZM262.053 27.6H263.709V36H262.449L258.849 30.864V36H257.193V27.6H258.453L262.053 32.724V27.6ZM268.486 36.168C266.77 36.168 265.642 35.34 265.186 34.092L266.602 33.264C266.902 34.044 267.49 34.548 268.534 34.548C269.53 34.548 269.878 34.128 269.878 33.66C269.878 33.036 269.314 32.796 268.066 32.436C266.782 32.064 265.534 31.524 265.534 29.928C265.534 28.344 266.854 27.432 268.294 27.432C269.674 27.432 270.73 28.14 271.294 29.316L269.902 30.12C269.602 29.484 269.146 29.04 268.294 29.04C267.598 29.04 267.19 29.4 267.19 29.88C267.19 30.396 267.514 30.672 268.786 31.056C270.118 31.476 271.534 31.92 271.534 33.636C271.534 35.208 270.274 36.168 268.486 36.168ZM276.226 36.168C274.39 36.168 273.022 35.064 273.022 33.252V27.6H274.666V33.12C274.666 33.936 275.098 34.548 276.226 34.548C277.354 34.548 277.786 33.936 277.786 33.12V27.6H279.442V33.252C279.442 35.064 278.074 36.168 276.226 36.168ZM283.07 34.416H286.274V36H281.414V27.6H283.07V34.416ZM292.395 27.6V29.184H290.127V36H288.471V29.184H286.215V27.6H292.395ZM298.59 36L298.086 34.488H294.738L294.234 36H292.446L295.386 27.6H297.438L300.39 36H298.59ZM295.266 32.94H297.57L296.418 29.508L295.266 32.94ZM306.546 27.6H308.202V36H306.942L303.342 30.864V36H301.686V27.6H302.946L306.546 32.724V27.6ZM314.224 36.168C311.68 36.168 309.856 34.248 309.856 31.8C309.856 29.34 311.68 27.432 314.224 27.432C315.76 27.432 317.116 28.212 317.836 29.412L316.408 30.24C316 29.496 315.184 29.04 314.224 29.04C312.58 29.04 311.5 30.18 311.5 31.8C311.5 33.408 312.58 34.548 314.224 34.548C315.184 34.548 316.012 34.092 316.408 33.36L317.836 34.188C317.128 35.388 315.772 36.168 314.224 36.168ZM325.794 27.6L322.914 32.724V36H321.27V32.724L318.402 27.6H320.274L322.098 31.104L323.922 27.6H325.794Z" fill="#409CFF"/>
<path d="M32.1195 72H37.6395V100H32.1195V72ZM53.7027 79.44C57.9427 79.44 61.2627 82.4 61.2627 87.72V100H56.1027V88.36C56.1027 85.64 54.4627 84.24 52.1427 84.24C49.6227 84.24 47.7427 85.72 47.7427 89.2V100H42.5827V80H47.7427V82.24C48.9427 80.44 51.0227 79.44 53.7027 79.44ZM77.1086 84.96H72.5886V93.28C72.5886 95.44 74.1486 95.48 77.1086 95.32V100C69.8686 100.8 67.4286 98.68 67.4286 93.28V84.96H63.9486V80H67.4286V75.96L72.5886 74.4V80H77.1086V84.96ZM84.4817 92.12C85.2017 94.76 87.4017 95.88 90.1217 95.88C92.1217 95.88 93.7217 95.04 94.6017 93.88L98.7617 96.28C96.8817 99 93.8817 100.56 90.0417 100.56C83.3217 100.56 79.0817 95.96 79.0817 90C79.0817 84.04 83.3617 79.44 89.6417 79.44C95.5617 79.44 99.7617 84.12 99.7617 90C99.7617 90.76 99.6817 91.44 99.5617 92.12H84.4817ZM84.4017 88.12H94.6017C93.9617 85.24 91.8017 84.08 89.6417 84.08C86.8817 84.08 85.0017 85.56 84.4017 88.12ZM108.524 83.44C109.564 80.72 112.084 79.6 114.604 79.6V85.36C111.924 85.04 108.524 86.24 108.524 90.44V100H103.364V80H108.524V83.44ZM128.742 79.44C132.982 79.44 136.302 82.4 136.302 87.72V100H131.142V88.36C131.142 85.64 129.502 84.24 127.182 84.24C124.662 84.24 122.782 85.72 122.782 89.2V100H117.622V80H122.782V82.24C123.982 80.44 126.062 79.44 128.742 79.44ZM155.908 80H161.068V100H155.908V97.64C154.468 99.44 152.308 100.56 149.388 100.56C144.068 100.56 139.668 95.96 139.668 90C139.668 84.04 144.068 79.44 149.388 79.44C152.308 79.44 154.468 80.56 155.908 82.36V80ZM150.348 95.64C153.548 95.64 155.908 93.36 155.908 90C155.908 86.64 153.548 84.36 150.348 84.36C147.188 84.36 144.828 86.64 144.828 90C144.828 93.36 147.188 95.64 150.348 95.64ZM165.747 100V70.8H170.907V100H165.747Z" fill="white"/>
<path d="M203.87 100L202.19 94.96H191.03L189.35 100H183.39L193.19 72H200.03L209.87 100H203.87ZM192.79 89.8H200.47L196.63 78.36L192.79 89.8ZM212.588 72H218.108V100H212.588V72ZM251.811 72V77.28H244.251V100H238.731V77.28H231.211V72H251.811ZM260.54 100.56C254.66 100.56 249.98 95.96 249.98 90C249.98 84.04 254.66 79.44 260.54 79.44C266.42 79.44 271.14 84.04 271.14 90C271.14 95.96 266.42 100.56 260.54 100.56ZM260.54 95.52C263.62 95.52 265.98 93.24 265.98 90C265.98 86.76 263.62 84.48 260.54 84.48C257.5 84.48 255.14 86.76 255.14 90C255.14 93.24 257.5 95.52 260.54 95.52ZM284.29 100.56C278.41 100.56 273.73 95.96 273.73 90C273.73 84.04 278.41 79.44 284.29 79.44C290.17 79.44 294.89 84.04 294.89 90C294.89 95.96 290.17 100.56 284.29 100.56ZM284.29 95.52C287.37 95.52 289.73 93.24 289.73 90C289.73 86.76 287.37 84.48 284.29 84.48C281.25 84.48 278.89 86.76 278.89 90C278.89 93.24 281.25 95.52 284.29 95.52ZM298.52 100V70.8H303.68V100H298.52ZM313.007 85.68C313.007 88.64 323.327 86.8 323.327 94.16C323.327 98.48 319.567 100.56 315.287 100.56C311.287 100.56 308.327 98.88 306.887 95.8L311.367 93.28C311.927 94.92 313.287 95.88 315.287 95.88C316.927 95.88 318.047 95.32 318.047 94.16C318.047 91.24 307.727 92.84 307.727 85.8C307.727 81.72 311.207 79.44 315.327 79.44C318.567 79.44 321.367 80.92 322.927 83.68L318.527 86.08C317.927 84.8 316.807 84.04 315.327 84.04C314.047 84.04 313.007 84.6 313.007 85.68Z" fill="#409CFF"/>
<g clip-path="url(#clip0_1266_9273)">
<g clip-path="url(#clip1_1266_9273)">
<rect width="8.28846" height="11.1116" transform="matrix(0.627213 0.778848 0.752834 -0.65821 167.285 136.512)" fill="#409CFF"/>
<rect width="4.98492" height="9.70714" transform="matrix(-0.752834 0.65821 0.627213 0.778848 180.849 135.654)" fill="#409CFF"/>
<path d="M186.938 143.214L179.663 149.574L181.591 151.967L187.359 146.924C188.191 146.197 188.303 144.91 187.611 144.05L186.938 143.214Z" fill="#409CFF"/>
</g>
<g clip-path="url(#clip2_1266_9273)">
<rect width="8.28846" height="11.1105" transform="matrix(-0.627212 0.778849 -0.752834 -0.658211 186.907 136.512)" fill="#566576" fill-opacity="0.8"/>
<rect width="4.98491" height="9.70713" transform="matrix(0.752834 0.658211 -0.627212 0.778849 173.344 135.654)" fill="#566576" fill-opacity="0.8"/>
<path d="M167.255 143.214L174.529 149.574L172.602 151.967L166.833 146.924C166.001 146.197 165.889 144.91 166.582 144.05L167.255 143.214Z" fill="#566576" fill-opacity="0.8"/>
</g>
</g>
</g>
<defs>
<filter id="filter0_b_1266_9273" x="-16" y="-16" width="386" height="204" filterUnits="userSpaceOnUse" color-interpolation-filters="sRGB">
<feFlood flood-opacity="0" result="BackgroundImageFix"/>
<feGaussianBlur in="BackgroundImageFix" stdDeviation="8"/>
<feComposite in2="SourceAlpha" operator="in" result="effect1_backgroundBlur_1266_9273"/>
<feBlend mode="normal" in="SourceGraphic" in2="effect1_backgroundBlur_1266_9273" result="shape"/>
</filter>
<clipPath id="clip0_1266_9273">
<rect width="22.8382" height="18" fill="white" transform="matrix(-1 0 0 1 188.419 131)"/>
</clipPath>
<clipPath id="clip1_1266_9273">
<rect width="13.731" height="20.5714" fill="white" transform="matrix(1 0 0 -1 177.096 149)"/>
</clipPath>
<clipPath id="clip2_1266_9273">
<rect width="13.731" height="20.5714" fill="white" transform="matrix(-1 0 0 -1 177.096 149)"/>
</clipPath>
</defs>
</svg>
