<svg width="296" height="76" viewBox="0 0 296 76" fill="none" xmlns="http://www.w3.org/2000/svg">
<g filter="url(#filter0_d_1264_7047)">
<rect x="16" y="8.02673" width="264" height="51" rx="12" fill="white" shape-rendering="crispEdges"/>
<path d="M39.6153 19.9267H41.4093V29.0267H39.6153V19.9267ZM48.8788 19.9267H50.6728V29.0267H49.3078L45.4078 23.4627V29.0267H43.6138V19.9267H44.9788L48.8788 25.4777V19.9267ZM58.8999 19.9267V21.6427H56.4429V29.0267H54.6489V21.6427H52.2049V19.9267H58.8999ZM62.2154 27.3107H66.0504V29.0267H60.4214V19.9267H65.9854V21.6427H62.2154V23.5797H65.6604V25.2697H62.2154V27.3107ZM72.8269 29.0267L70.9939 25.8677H69.6289V29.0267H67.8349V19.9267H71.4749C73.1519 19.9267 74.5039 21.2787 74.5039 22.9427C74.5039 24.0867 73.7889 25.1137 72.7489 25.5947L74.7639 29.0267H72.8269ZM69.6289 21.6037V24.2947H71.4749C72.1509 24.2947 72.7099 23.6967 72.7099 22.9427C72.7099 22.1887 72.1509 21.6037 71.4749 21.6037H69.6289ZM81.6053 19.9267H83.3993V29.0267H82.0343L78.1343 23.4627V29.0267H76.3403V19.9267H77.7053L81.6053 25.4777V19.9267ZM91.4574 29.0267L90.9114 27.3887H87.2844L86.7384 29.0267H84.8014L87.9864 19.9267H90.2094L93.4074 29.0267H91.4574ZM87.8564 25.7117H90.3524L89.1044 21.9937L87.8564 25.7117ZM96.605 27.3107H100.076V29.0267H94.811V19.9267H96.605V27.3107ZM111.235 29.0267L110.689 27.3887H107.062L106.516 29.0267H104.579L107.764 19.9267H109.987L113.185 29.0267H111.235ZM107.634 25.7117H110.13L108.882 21.9937L107.634 25.7117ZM114.589 19.9267H116.383V29.0267H114.589V19.9267ZM128.376 19.9267V21.6427H125.919V29.0267H124.125V21.6427H121.681V19.9267H128.376ZM133.68 29.2087C131.054 29.2087 128.961 27.1287 128.961 24.4767C128.961 21.8117 131.054 19.7447 133.68 19.7447C136.306 19.7447 138.412 21.8117 138.412 24.4767C138.412 27.1287 136.306 29.2087 133.68 29.2087ZM133.68 27.4537C135.331 27.4537 136.618 26.2187 136.618 24.4767C136.618 22.7217 135.331 21.4867 133.68 21.4867C132.029 21.4867 130.742 22.7217 130.742 24.4767C130.742 26.2187 132.029 27.4537 133.68 27.4537ZM144.496 29.2087C141.87 29.2087 139.777 27.1287 139.777 24.4767C139.777 21.8117 141.87 19.7447 144.496 19.7447C147.122 19.7447 149.228 21.8117 149.228 24.4767C149.228 27.1287 147.122 29.2087 144.496 29.2087ZM144.496 27.4537C146.147 27.4537 147.434 26.2187 147.434 24.4767C147.434 22.7217 146.147 21.4867 144.496 21.4867C142.845 21.4867 141.558 22.7217 141.558 24.4767C141.558 26.2187 142.845 27.4537 144.496 27.4537ZM152.803 27.3107H156.274V29.0267H151.009V19.9267H152.803V27.3107ZM160.755 29.2087C158.896 29.2087 157.674 28.3117 157.18 26.9597L158.714 26.0627C159.039 26.9077 159.676 27.4537 160.807 27.4537C161.886 27.4537 162.263 26.9987 162.263 26.4917C162.263 25.8157 161.652 25.5557 160.3 25.1657C158.909 24.7627 157.557 24.1777 157.557 22.4487C157.557 20.7327 158.987 19.7447 160.547 19.7447C162.042 19.7447 163.186 20.5117 163.797 21.7857L162.289 22.6567C161.964 21.9677 161.47 21.4867 160.547 21.4867C159.793 21.4867 159.351 21.8767 159.351 22.3967C159.351 22.9557 159.702 23.2547 161.08 23.6707C162.523 24.1257 164.057 24.6067 164.057 26.4657C164.057 28.1687 162.692 29.2087 160.755 29.2087ZM177.148 28.5067L175.718 29.3257L174.886 28.4287C174.236 28.9097 173.43 29.2087 172.442 29.2087C170.596 29.2087 169.257 28.1817 169.257 26.5047C169.257 25.4517 169.777 24.4767 170.778 23.8917C170.518 23.4757 170.336 22.9947 170.336 22.3707C170.336 20.8237 171.545 19.7447 173.183 19.7447C174.457 19.7447 175.562 20.4077 176.082 21.6947L174.548 22.5787C174.314 21.9027 173.859 21.4867 173.209 21.4867C172.585 21.4867 172.13 21.8897 172.13 22.4487C172.13 22.9947 172.455 23.3717 172.871 23.8267L174.821 25.9587C175.016 25.5297 175.159 25.0227 175.263 24.4507L176.771 25.3087C176.615 25.9587 176.355 26.6217 175.978 27.2197L177.148 28.5067ZM172.559 27.5577C173.027 27.5577 173.43 27.4407 173.768 27.2327L171.805 25.1007C171.792 25.0877 171.779 25.0747 171.779 25.0617C171.259 25.3867 171.064 25.8677 171.064 26.3227C171.064 27.0507 171.558 27.5577 172.559 27.5577ZM185.947 19.9267C187.702 19.9267 189.054 21.2787 189.054 22.9817C189.054 24.6847 187.702 26.0367 185.947 26.0367H184.348V29.0267H182.554V19.9267H185.947ZM185.947 24.3597C186.714 24.3597 187.273 23.7617 187.273 22.9817C187.273 22.1887 186.714 21.6037 185.947 21.6037H184.348V24.3597H185.947ZM195.734 29.0267L193.901 25.8677H192.536V29.0267H190.742V19.9267H194.382C196.059 19.9267 197.411 21.2787 197.411 22.9427C197.411 24.0867 196.696 25.1137 195.656 25.5947L197.671 29.0267H195.734ZM192.536 21.6037V24.2947H194.382C195.058 24.2947 195.617 23.6967 195.617 22.9427C195.617 22.1887 195.058 21.6037 194.382 21.6037H192.536ZM203.449 29.2087C200.823 29.2087 198.73 27.1287 198.73 24.4767C198.73 21.8117 200.823 19.7447 203.449 19.7447C206.075 19.7447 208.181 21.8117 208.181 24.4767C208.181 27.1287 206.075 29.2087 203.449 29.2087ZM203.449 27.4537C205.1 27.4537 206.387 26.2187 206.387 24.4767C206.387 22.7217 205.1 21.4867 203.449 21.4867C201.798 21.4867 200.511 22.7217 200.511 24.4767C200.511 26.2187 201.798 27.4537 203.449 27.4537ZM214.278 29.2087C211.522 29.2087 209.546 27.1287 209.546 24.4767C209.546 21.8117 211.522 19.7447 214.278 19.7447C215.942 19.7447 217.411 20.5897 218.191 21.8897L216.644 22.7867C216.202 21.9807 215.318 21.4867 214.278 21.4867C212.497 21.4867 211.327 22.7217 211.327 24.4767C211.327 26.2187 212.497 27.4537 214.278 27.4537C215.318 27.4537 216.215 26.9597 216.644 26.1667L218.191 27.0637C217.424 28.3637 215.955 29.2087 214.278 29.2087ZM221.607 27.3107H225.442V29.0267H219.813V19.9267H225.377V21.6427H221.607V23.5797H225.052V25.2697H221.607V27.3107ZM230.334 29.2087C228.475 29.2087 227.253 28.3117 226.759 26.9597L228.293 26.0627C228.618 26.9077 229.255 27.4537 230.386 27.4537C231.465 27.4537 231.842 26.9987 231.842 26.4917C231.842 25.8157 231.231 25.5557 229.879 25.1657C228.488 24.7627 227.136 24.1777 227.136 22.4487C227.136 20.7327 228.566 19.7447 230.126 19.7447C231.621 19.7447 232.765 20.5117 233.376 21.7857L231.868 22.6567C231.543 21.9677 231.049 21.4867 230.126 21.4867C229.372 21.4867 228.93 21.8767 228.93 22.3967C228.93 22.9557 229.281 23.2547 230.659 23.6707C232.102 24.1257 233.636 24.6067 233.636 26.4657C233.636 28.1687 232.271 29.2087 230.334 29.2087ZM238.153 29.2087C236.294 29.2087 235.072 28.3117 234.578 26.9597L236.112 26.0627C236.437 26.9077 237.074 27.4537 238.205 27.4537C239.284 27.4537 239.661 26.9987 239.661 26.4917C239.661 25.8157 239.05 25.5557 237.698 25.1657C236.307 24.7627 234.955 24.1777 234.955 22.4487C234.955 20.7327 236.385 19.7447 237.945 19.7447C239.44 19.7447 240.584 20.5117 241.195 21.7857L239.687 22.6567C239.362 21.9677 238.868 21.4867 237.945 21.4867C237.191 21.4867 236.749 21.8767 236.749 22.3967C236.749 22.9557 237.1 23.2547 238.478 23.6707C239.921 24.1257 241.455 24.6067 241.455 26.4657C241.455 28.1687 240.09 29.2087 238.153 29.2087ZM244.876 27.3107H248.711V29.0267H243.082V19.9267H248.646V21.6427H244.876V23.5797H248.321V25.2697H244.876V27.3107ZM253.603 29.2087C251.744 29.2087 250.522 28.3117 250.028 26.9597L251.562 26.0627C251.887 26.9077 252.524 27.4537 253.655 27.4537C254.734 27.4537 255.111 26.9987 255.111 26.4917C255.111 25.8157 254.5 25.5557 253.148 25.1657C251.757 24.7627 250.405 24.1777 250.405 22.4487C250.405 20.7327 251.835 19.7447 253.395 19.7447C254.89 19.7447 256.034 20.5117 256.645 21.7857L255.137 22.6567C254.812 21.9677 254.318 21.4867 253.395 21.4867C252.641 21.4867 252.199 21.8767 252.199 22.3967C252.199 22.9557 252.55 23.2547 253.928 23.6707C255.371 24.1257 256.905 24.6067 256.905 26.4657C256.905 28.1687 255.54 29.2087 253.603 29.2087Z" fill="#182634"/>
<path d="M59.5876 47.0267L59.0416 45.3887H55.4146L54.8686 47.0267H52.9316L56.1166 37.9267H58.3396L61.5376 47.0267H59.5876ZM55.9866 43.7117H58.4826L57.2346 39.9937L55.9866 43.7117ZM65.845 47.2087C63.986 47.2087 62.764 46.3117 62.27 44.9597L63.804 44.0627C64.129 44.9077 64.766 45.4537 65.897 45.4537C66.976 45.4537 67.353 44.9987 67.353 44.4917C67.353 43.8157 66.742 43.5557 65.39 43.1657C63.999 42.7627 62.647 42.1777 62.647 40.4487C62.647 38.7327 64.077 37.7447 65.637 37.7447C67.132 37.7447 68.276 38.5117 68.887 39.7857L67.379 40.6567C67.054 39.9677 66.56 39.4867 65.637 39.4867C64.883 39.4867 64.441 39.8767 64.441 40.3967C64.441 40.9557 64.792 41.2547 66.17 41.6707C67.613 42.1257 69.147 42.6067 69.147 44.4657C69.147 46.1687 67.782 47.2087 65.845 47.2087ZM78.9231 47.2087C76.1671 47.2087 74.1911 45.1287 74.1911 42.4767C74.1911 39.8117 76.1671 37.7447 78.9231 37.7447C80.5871 37.7447 82.0561 38.5897 82.8361 39.8897L81.2891 40.7867C80.8471 39.9807 79.9631 39.4867 78.9231 39.4867C77.1421 39.4867 75.9721 40.7217 75.9721 42.4767C75.9721 44.2187 77.1421 45.4537 78.9231 45.4537C79.9631 45.4537 80.8601 44.9597 81.2891 44.1667L82.8361 45.0637C82.0691 46.3637 80.6001 47.2087 78.9231 47.2087ZM88.6723 47.2087C86.0463 47.2087 83.9533 45.1287 83.9533 42.4767C83.9533 39.8117 86.0463 37.7447 88.6723 37.7447C91.2983 37.7447 93.4043 39.8117 93.4043 42.4767C93.4043 45.1287 91.2983 47.2087 88.6723 47.2087ZM88.6723 45.4537C90.3233 45.4537 91.6103 44.2187 91.6103 42.4767C91.6103 40.7217 90.3233 39.4867 88.6723 39.4867C87.0213 39.4867 85.7343 40.7217 85.7343 42.4767C85.7343 44.2187 87.0213 45.4537 88.6723 45.4537ZM104.09 37.9267V47.0267H102.309V41.1247L99.7482 45.3497H99.5402L96.9792 41.1377V47.0267H95.1852V37.9267H97.0312L99.6442 42.2297L102.244 37.9267H104.09ZM109.699 37.9267C111.454 37.9267 112.806 39.2787 112.806 40.9817C112.806 42.6847 111.454 44.0367 109.699 44.0367H108.1V47.0267H106.306V37.9267H109.699ZM109.699 42.3597C110.466 42.3597 111.025 41.7617 111.025 40.9817C111.025 40.1887 110.466 39.6037 109.699 39.6037H108.1V42.3597H109.699ZM116.288 45.3107H120.123V47.0267H114.494V37.9267H120.058V39.6427H116.288V41.5797H119.733V43.2697H116.288V45.3107ZM127.926 37.9267V39.6427H125.469V47.0267H123.675V39.6427H121.231V37.9267H127.926ZM129.448 37.9267H131.242V47.0267H129.448V37.9267ZM139.465 37.9267V39.6427H137.008V47.0267H135.214V39.6427H132.77V37.9267H139.465ZM140.987 37.9267H142.781V47.0267H140.987V37.9267ZM147.234 47.0267L144.179 37.9267H146.129L148.352 44.9207L150.562 37.9267H152.525L149.457 47.0267H147.234ZM155.716 45.3107H159.551V47.0267H153.922V37.9267H159.486V39.6427H155.716V41.5797H159.161V43.2697H155.716V45.3107ZM170.956 47.0267L170.41 45.3887H166.783L166.237 47.0267H164.3L167.485 37.9267H169.708L172.906 47.0267H170.956ZM167.355 43.7117H169.851L168.603 39.9937L167.355 43.7117ZM177.924 37.9267C180.433 37.9267 182.305 39.9157 182.305 42.4767C182.305 45.0377 180.433 47.0267 177.924 47.0267H174.31V37.9267H177.924ZM177.924 45.3107C179.497 45.3107 180.589 44.1537 180.589 42.4767C180.589 40.7997 179.497 39.6427 177.924 39.6427H176.104V45.3107H177.924ZM185.94 47.0267L182.885 37.9267H184.835L187.058 44.9207L189.268 37.9267H191.231L188.163 47.0267H185.94ZM197.957 47.0267L197.411 45.3887H193.784L193.238 47.0267H191.301L194.486 37.9267H196.709L199.907 47.0267H197.957ZM194.356 43.7117H196.852L195.604 39.9937L194.356 43.7117ZM206.576 37.9267H208.37V47.0267H207.005L203.105 41.4627V47.0267H201.311V37.9267H202.676L206.576 43.4777V37.9267ZM216.597 37.9267V39.6427H214.14V47.0267H212.346V39.6427H209.902V37.9267H216.597ZM223.308 47.0267L222.762 45.3887H219.135L218.589 47.0267H216.652L219.837 37.9267H222.06L225.258 47.0267H223.308ZM219.707 43.7117H222.203L220.955 39.9937L219.707 43.7117ZM235.263 42.1387V42.8407C235.263 45.4667 233.404 47.2087 230.791 47.2087C227.944 47.2087 225.916 45.0897 225.916 42.4897C225.916 39.8507 227.97 37.7447 230.687 37.7447C232.416 37.7447 233.885 38.6157 234.652 39.8637L233.118 40.7477C232.702 40.0197 231.779 39.4867 230.674 39.4867C228.945 39.4867 227.697 40.7607 227.697 42.4897C227.697 44.1797 228.906 45.4537 230.804 45.4537C232.234 45.4537 233.144 44.7647 233.456 43.7247H230.7V42.1387H235.263ZM238.853 45.3107H242.688V47.0267H237.059V37.9267H242.623V39.6427H238.853V41.5797H242.298V43.2697H238.853V45.3107Z" fill="#133450" fill-opacity="0.6"/>
</g>
<defs>
<filter id="filter0_d_1264_7047" x="0" y="0.0267334" width="296" height="83" filterUnits="userSpaceOnUse" color-interpolation-filters="sRGB">
<feFlood flood-opacity="0" result="BackgroundImageFix"/>
<feColorMatrix in="SourceAlpha" type="matrix" values="0 0 0 0 0 0 0 0 0 0 0 0 0 0 0 0 0 0 127 0" result="hardAlpha"/>
<feOffset dy="8"/>
<feGaussianBlur stdDeviation="8"/>
<feComposite in2="hardAlpha" operator="out"/>
<feColorMatrix type="matrix" values="0 0 0 0 0.258824 0 0 0 0 0.321569 0 0 0 0 0.431373 0 0 0 0.12 0"/>
<feBlend mode="normal" in2="BackgroundImageFix" result="effect1_dropShadow_1264_7047"/>
<feBlend mode="normal" in="SourceGraphic" in2="effect1_dropShadow_1264_7047" result="shape"/>
</filter>
</defs>
</svg>
